<svg class="animated" id="freepik_stories-recording-a-movie" xmlns="http://www.w3.org/2000/svg" viewBox="0 0 500 390.7" version="1.1" xmlns:xlink="http://www.w3.org/1999/xlink" xmlns:svgjs="http://svgjs.com/svgjs"><style>svg#freepik_stories-recording-a-movie:not(.animated) .animable {opacity: 0;}svg#freepik_stories-recording-a-movie.animated #freepik--background-complete--inject-1 {animation: 1s 1 forwards cubic-bezier(.36,-0.01,.5,1.38) fadeIn;animation-delay: 0s;}svg#freepik_stories-recording-a-movie.animated #freepik--character-1--inject-1 {animation: 1.5s Infinite  linear floating;animation-delay: 0s;}svg#freepik_stories-recording-a-movie.animated #freepik--character-3--inject-1 {animation: 1.5s Infinite  linear floating;animation-delay: 0s;}            @keyframes fadeIn {                0% {                    opacity: 0;                }                100% {                    opacity: 1;                }            }                    @keyframes floating {                0% {                    opacity: 1;                    transform: translateY(0px);                }                50% {                    transform: translateY(-10px);                }                100% {                    opacity: 1;                    transform: translateY(0px);                }            }        </style><g id="freepik--background-complete--inject-1" class="animable animator-active" style="transform-origin: 250px 189.265px;"><rect y="345.54" width="500" height="0.25" style="fill: rgb(235, 235, 235); transform-origin: 250px 345.665px;" id="elpkpunj3k4v" class="animable"></rect><rect x="328.88" y="353.48" width="33.12" height="0.25" style="fill: rgb(235, 235, 235); transform-origin: 345.44px 353.605px;" id="el93gpueckqq5" class="animable"></rect><rect x="399.78" y="353.61" width="41.14" height="0.25" style="fill: rgb(235, 235, 235); transform-origin: 420.35px 353.735px;" id="elh506lqdktv" class="animable"></rect><rect x="356.76" y="360.14" width="19.19" height="0.25" style="fill: rgb(235, 235, 235); transform-origin: 366.355px 360.265px;" id="elur429y9k8lm" class="animable"></rect><rect x="174" y="358.25" width="51.67" height="0.25" style="fill: rgb(235, 235, 235); transform-origin: 199.835px 358.375px;" id="el07e34pgkoj2k" class="animable"></rect><rect x="130.71" y="358.25" width="34.39" height="0.25" style="fill: rgb(235, 235, 235); transform-origin: 147.905px 358.375px;" id="elnyxkntukbf" class="animable"></rect><rect x="63.29" y="354.03" width="46.84" height="0.25" style="fill: rgb(235, 235, 235); transform-origin: 86.71px 354.155px;" id="elrm95ezwhphk" class="animable"></rect><path d="M237,300.94H43.91a5.71,5.71,0,0,1-5.7-5.71V23.8a5.71,5.71,0,0,1,5.7-5.66H237a5.71,5.71,0,0,1,5.71,5.71h0V295.23A5.71,5.71,0,0,1,237,300.94ZM43.91,18.34a5.46,5.46,0,0,0-5.45,5.46V295.23a5.46,5.46,0,0,0,5.45,5.46H237a5.48,5.48,0,0,0,5.46-5.46V23.8A5.48,5.48,0,0,0,237,18.34Z" style="fill: rgb(235, 235, 235); transform-origin: 140.46px 159.54px;" id="el9ctckf67xt9" class="animable"></path><path d="M453.31,300.94H260.21a5.73,5.73,0,0,1-5.71-5.71V23.8a5.72,5.72,0,0,1,5.71-5.66h193.1A5.71,5.71,0,0,1,459,23.8V295.23A5.7,5.7,0,0,1,453.31,300.94ZM260.21,18.34a5.48,5.48,0,0,0-5.46,5.46V295.23a5.48,5.48,0,0,0,5.46,5.46h193.1a5.48,5.48,0,0,0,5.46-5.46V23.8a5.48,5.48,0,0,0-5.46-5.46Z" style="fill: rgb(235, 235, 235); transform-origin: 356.75px 159.54px;" id="el6lcra1i3fxg" class="animable"></path><path d="M119.31,137.54H54a1.5,1.5,0,0,1-1.5-1.5V70.7A1.5,1.5,0,0,1,54,69.2h65.35a1.5,1.5,0,0,1,1.5,1.5V136a1.5,1.5,0,0,1-1.5,1.5Zm-63.85-3h62.35V72.2H55.46Z" style="fill: rgb(235, 235, 235); transform-origin: 86.675px 103.37px;" id="elsx5hlwmpz69" class="animable"></path><path d="M119.31,137.54a1.5,1.5,0,0,1-1.06-.44L52.9,71.76A1.5,1.5,0,0,1,55,69.63L120.35,135a1.49,1.49,0,0,1,0,2.11h0A1.51,1.51,0,0,1,119.31,137.54Z" style="fill: rgb(235, 235, 235); transform-origin: 86.6599px 103.408px;" id="elnmk1xx3xw5q" class="animable"></path><path d="M54,137.54a1.53,1.53,0,0,1-1.1-.4,1.51,1.51,0,0,1,0-2.12l65.35-65.35a1.5,1.5,0,1,1,2.12,2.13L55,137.14A1.49,1.49,0,0,1,54,137.54Z" style="fill: rgb(235, 235, 235); transform-origin: 86.64px 103.386px;" id="el65c4sn4it2o" class="animable"></path><path d="M184.65,137.54H119.31a1.5,1.5,0,0,1-1.5-1.5V70.7a1.5,1.5,0,0,1,1.5-1.5h65.34a1.5,1.5,0,0,1,1.5,1.5V136A1.5,1.5,0,0,1,184.65,137.54Zm-63.84-3h62.34V72.2H120.81Z" style="fill: rgb(235, 235, 235); transform-origin: 151.98px 103.37px;" id="eldh51pr7fdd" class="animable"></path><path d="M184.65,137.54a1.5,1.5,0,0,1-1.06-.44L118.25,71.76a1.5,1.5,0,1,1,2.12-2.13L185.72,135a1.51,1.51,0,0,1,0,2.12A1.54,1.54,0,0,1,184.65,137.54Z" style="fill: rgb(235, 235, 235); transform-origin: 151.981px 103.366px;" id="elwd4otghfhn" class="animable"></path><path d="M119.31,137.54a1.5,1.5,0,0,1-1.07-2.55h0l65.34-65.35a1.51,1.51,0,0,1,2.13,2.13l-65.35,65.38A1.5,1.5,0,0,1,119.31,137.54Z" style="fill: rgb(235, 235, 235); transform-origin: 151.945px 103.406px;" id="el6yfjrq246" class="animable"></path><path d="M250,137.54H184.65a1.5,1.5,0,0,1-1.5-1.5V70.7a1.5,1.5,0,0,1,1.5-1.5H250a1.5,1.5,0,0,1,1.5,1.5V136A1.5,1.5,0,0,1,250,137.54Zm-63.85-3H248.5V72.2H186.15Z" style="fill: rgb(235, 235, 235); transform-origin: 217.325px 103.37px;" id="elldwjnhp9g8c" class="animable"></path><path d="M250,137.54a1.5,1.5,0,0,1-1.06-.44L183.59,71.76a1.51,1.51,0,0,1,2.13-2.13L251.06,135a1.49,1.49,0,0,1,0,2.11h0A1.5,1.5,0,0,1,250,137.54Z" style="fill: rgb(235, 235, 235); transform-origin: 217.36px 103.401px;" id="elw012ta6zzdr" class="animable"></path><path d="M184.65,137.54a1.5,1.5,0,0,1-1.06-2.56l65.35-65.35a1.5,1.5,0,1,1,2.12,2.13h0l-65.34,65.38A1.52,1.52,0,0,1,184.65,137.54Z" style="fill: rgb(235, 235, 235); transform-origin: 217.327px 103.366px;" id="elrkr1a5dmdb" class="animable"></path><path d="M315.35,137.54H250a1.5,1.5,0,0,1-1.5-1.5V70.7a1.5,1.5,0,0,1,1.5-1.5h65.35a1.5,1.5,0,0,1,1.5,1.5V136A1.5,1.5,0,0,1,315.35,137.54Zm-63.85-3h62.35V72.2H251.5Z" style="fill: rgb(235, 235, 235); transform-origin: 282.675px 103.37px;" id="elwzhpjtwukkm" class="animable"></path><path d="M315.35,137.54a1.54,1.54,0,0,1-1.07-.44L248.94,71.76a1.5,1.5,0,1,1,2.12-2.13h0L316.41,135a1.5,1.5,0,0,1-1.06,2.56Z" style="fill: rgb(235, 235, 235); transform-origin: 282.673px 103.376px;" id="elkgdvy1z073s" class="animable"></path><path d="M250,137.54a1.5,1.5,0,0,1-1.07-2.55h0l65.34-65.35a1.51,1.51,0,1,1,2.28,2l-.15.15-65.35,65.38A1.5,1.5,0,0,1,250,137.54Z" style="fill: rgb(235, 235, 235); transform-origin: 282.714px 103.332px;" id="eljqhwy4rzm39" class="animable"></path><path d="M380.69,137.54H315.35a1.5,1.5,0,0,1-1.5-1.5V70.7a1.5,1.5,0,0,1,1.5-1.5h65.34a1.5,1.5,0,0,1,1.5,1.5V136A1.5,1.5,0,0,1,380.69,137.54Zm-63.84-3h62.34V72.2H316.85Z" style="fill: rgb(235, 235, 235); transform-origin: 348.02px 103.37px;" id="elaurmghxzls" class="animable"></path><path d="M380.69,137.54a1.5,1.5,0,0,1-1.06-.44L314.28,71.76a1.51,1.51,0,0,1,2.13-2.13L381.75,135a1.49,1.49,0,0,1,0,2.11h0A1.5,1.5,0,0,1,380.69,137.54Z" style="fill: rgb(235, 235, 235); transform-origin: 348.05px 103.401px;" id="elkzelnw7ciq" class="animable"></path><path d="M315.35,137.54a1.54,1.54,0,0,1-1.07-.44,1.51,1.51,0,0,1,0-2.12l65.35-65.35a1.5,1.5,0,1,1,2.12,2.13h0l-65.34,65.38A1.54,1.54,0,0,1,315.35,137.54Z" style="fill: rgb(235, 235, 235); transform-origin: 348.019px 103.366px;" id="elj6hydu8794f" class="animable"></path><path d="M446,137.54H380.69a1.5,1.5,0,0,1-1.5-1.5V70.7a1.5,1.5,0,0,1,1.5-1.5H446a1.5,1.5,0,0,1,1.5,1.5V136A1.5,1.5,0,0,1,446,137.54Zm-63.85-3H444.5V72.2H382.19Z" style="fill: rgb(235, 235, 235); transform-origin: 413.345px 103.37px;" id="elywiqgy54dfg" class="animable"></path><path d="M446,137.54a1.49,1.49,0,0,1-1-.4L379.65,71.8a1.5,1.5,0,1,1,2.12-2.13h0L447.12,135a1.51,1.51,0,0,1,0,2.12A1.54,1.54,0,0,1,446,137.54Z" style="fill: rgb(235, 235, 235); transform-origin: 413.381px 103.387px;" id="elcqenask1lwq" class="animable"></path><path d="M380.69,137.54a1.5,1.5,0,0,1-1.07-2.55h0L445,69.63a1.5,1.5,0,1,1,2.12,2.13h0l-65.37,65.38A1.5,1.5,0,0,1,380.69,137.54Z" style="fill: rgb(235, 235, 235); transform-origin: 413.377px 103.366px;" id="elxztejw5xgo" class="animable"></path><polygon points="82.52 170.21 98.86 171.02 90.27 150.35 79.32 162.52 82.52 170.21" style="fill: rgb(224, 224, 224); transform-origin: 89.09px 160.685px;" id="elt0xb2qj0o9f" class="animable"></polygon><polygon points="83.17 160.37 82.86 145.08 73.83 154.39 78.16 164.52 83.17 160.37" style="fill: rgb(224, 224, 224); transform-origin: 78.5px 154.8px;" id="ellyv8d0n9ive" class="animable"></polygon><polygon points="86.75 169 97.39 179.99 84.41 179.84 80.28 169.63 86.75 169" style="fill: rgb(224, 224, 224); transform-origin: 88.835px 174.495px;" id="el692pap5ygnv" class="animable"></polygon><path d="M65.83,183.14l22.26-9.26-7.47-18-22.26,9.26a9.75,9.75,0,0,0-5.24,12.72h0A9.75,9.75,0,0,0,65.83,183.14Z" style="fill: rgb(235, 235, 235); transform-origin: 70.2346px 169.876px;" id="elub9h0eq6ooj" class="animable"></path><path d="M60.71,306.75a1.5,1.5,0,0,1-1.5-1.5V174.78a1.5,1.5,0,0,1,3,0V305.25A1.5,1.5,0,0,1,60.71,306.75Z" style="fill: rgb(235, 235, 235); transform-origin: 60.71px 240.015px;" id="elsppr1ysngcg" class="animable"></path><path d="M54.83,299.14H66.59a4.58,4.58,0,0,0,4.56-4.57h0A4.57,4.57,0,0,0,66.59,290H54.83a4.58,4.58,0,0,0-4.57,4.56h0A4.59,4.59,0,0,0,54.83,299.14Z" style="fill: rgb(224, 224, 224); transform-origin: 60.705px 294.57px;" id="eld7iv53wx1x" class="animable"></path><polygon points="83.71 345.54 86.27 345.54 66.27 297.14 63.71 297.14 83.71 345.54" style="fill: rgb(224, 224, 224); transform-origin: 74.99px 321.34px;" id="elus0ovqpm2ic" class="animable"></polygon><polygon points="37.71 345.54 35.15 345.54 55.15 297.14 57.71 297.14 37.71 345.54" style="fill: rgb(224, 224, 224); transform-origin: 46.43px 321.34px;" id="el77bwm0sx6ec" class="animable"></polygon><polygon points="52.49 345.54 49.93 345.54 59.6 297.14 62.15 297.14 52.49 345.54" style="fill: rgb(224, 224, 224); transform-origin: 56.04px 321.34px;" id="elktkb5o8hbj" class="animable"></polygon><polygon points="443.29 235.83 449.81 250.84 464.52 233.97 448.76 229.56 443.29 235.83" style="fill: rgb(224, 224, 224); transform-origin: 453.905px 240.2px;" id="elp5ououojsdg" class="animable"></polygon><polygon points="452.39 232.05 465.96 224.99 453.61 221.03 446.45 229.4 452.39 232.05" style="fill: rgb(224, 224, 224); transform-origin: 456.205px 226.54px;" id="elu2yml3ezlna" class="animable"></polygon><polygon points="446.26 239.09 441.13 253.5 435.5 241.8 442.82 233.57 446.26 239.09" style="fill: rgb(224, 224, 224); transform-origin: 440.88px 243.535px;" id="el37bfg9g0ceo" class="animable"></polygon><path d="M424.26,226.64l18.18,15.84,12.78-14.67L437,212a9.76,9.76,0,0,0-13.72.95h0A9.76,9.76,0,0,0,424.26,226.64Z" style="fill: rgb(235, 235, 235); transform-origin: 438.076px 226.052px;" id="elz3d4xx2ru2" class="animable"></path><path d="M429.52,306.75a1.5,1.5,0,0,1-1.5-1.5V218.32a1.5,1.5,0,1,1,3,0v86.93A1.5,1.5,0,0,1,429.52,306.75Z" style="fill: rgb(235, 235, 235); transform-origin: 429.52px 261.785px;" id="elk3mem604hy" class="animable"></path><path d="M423.64,299.14H435.4a4.58,4.58,0,0,0,4.56-4.57h0A4.57,4.57,0,0,0,435.4,290H423.64a4.58,4.58,0,0,0-4.57,4.56h0A4.59,4.59,0,0,0,423.64,299.14Z" style="fill: rgb(224, 224, 224); transform-origin: 429.515px 294.57px;" id="el2bl3v0t49j9" class="animable"></path><polygon points="452.52 345.54 455.07 345.54 435.07 297.14 432.52 297.14 452.52 345.54" style="fill: rgb(224, 224, 224); transform-origin: 443.795px 321.34px;" id="elmzhelqigsz" class="animable"></polygon><polygon points="406.52 345.54 403.96 345.54 423.96 297.14 426.52 297.14 406.52 345.54" style="fill: rgb(224, 224, 224); transform-origin: 415.24px 321.34px;" id="el9ekbbedhzuf" class="animable"></polygon><polygon points="421.3 345.54 418.74 345.54 428.41 297.14 430.96 297.14 421.3 345.54" style="fill: rgb(224, 224, 224); transform-origin: 424.85px 321.34px;" id="el4lr1padgh6u" class="animable"></polygon></g><g id="freepik--Shadow--inject-1" class="animable" style="transform-origin: 250px 379.38px;"><ellipse id="freepik--path--inject-1" cx="250" cy="379.38" rx="193.89" ry="11.32" style="fill: rgb(245, 245, 245); transform-origin: 250px 379.38px;" class="animable"></ellipse></g><g id="freepik--Spotlight--inject-1" class="animable" style="transform-origin: 148.645px 194.766px;"><rect x="125.74" y="16.47" width="5.38" height="307.7" rx="1.59" style="fill: rgb(38, 50, 56); transform-origin: 128.43px 170.32px;" id="elq9ajxiykch" class="animable"></rect><g id="el8atibhfy416"><rect x="125.74" y="16.47" width="5.38" height="307.7" rx="1.59" style="fill: rgb(255, 255, 255); opacity: 0.8; isolation: isolate; transform-origin: 128.43px 170.32px;" class="animable"></rect></g><rect x="89.24" y="51.78" width="58.68" height="5.38" rx="1.59" style="fill: rgb(38, 50, 56); transform-origin: 118.58px 54.47px;" id="elqas1kv72rur" class="animable"></rect><g id="elrsl2u6xx4vo"><rect x="89.24" y="51.78" width="58.68" height="5.38" rx="1.59" style="fill: rgb(255, 255, 255); opacity: 0.8; isolation: isolate; transform-origin: 118.58px 54.47px;" class="animable"></rect></g><path d="M139.37,373.06H117.49a2,2,0,0,1-2-2.39L121.76,318a3,3,0,0,1,3-2.67h7.37a3,3,0,0,1,3,2.67l6.27,52.67a2,2,0,0,1-1.57,2.35A1.79,1.79,0,0,1,139.37,373.06Z" style="fill: rgb(38, 50, 56); transform-origin: 128.445px 344.196px;" id="eli03cqgpmxjc" class="animable"></path><g id="elxt8tmgd7ptk"><path d="M139.37,373.06H117.49a2,2,0,0,1-2-2.39L121.76,318a3,3,0,0,1,3-2.67h7.37a3,3,0,0,1,3,2.67l6.27,52.67a2,2,0,0,1-1.57,2.35A1.79,1.79,0,0,1,139.37,373.06Z" style="fill: rgb(255, 255, 255); opacity: 0.6; isolation: isolate; transform-origin: 128.445px 344.196px;" class="animable"></path></g><polygon points="187.08 119.02 113.76 119.02 134.73 22.37 208.05 22.37 187.08 119.02" style="fill: rgb(38, 50, 56); transform-origin: 160.905px 70.695px;" id="el10prrf8h89yn" class="animable"></polygon><path d="M103.47,100.28,113.76,119l21-96.65L117.08,36.14a21.06,21.06,0,0,0-7.62,12.14l-8.11,37.39A21,21,0,0,0,103.47,100.28Z" style="fill: rgb(38, 50, 56); transform-origin: 117.813px 70.675px;" id="elequrw25ti7t" class="animable"></path><g id="el1hsux7it0f4j"><polygon points="116.84 116.53 136.73 24.86 204.97 24.86 185.08 116.53 116.84 116.53" style="fill: rgb(255, 255, 255); opacity: 0.3; isolation: isolate; transform-origin: 160.905px 70.695px;" class="animable"></polygon></g><g id="elyqj2ngmvu8g"><polygon points="120.92 114.05 139.74 27.34 202.89 27.34 184.07 114.05 120.92 114.05" style="fill: rgb(255, 255, 255); opacity: 0.3; isolation: isolate; transform-origin: 161.905px 70.695px;" class="animable"></polygon></g><polygon points="125 111.56 142.74 29.83 200.81 29.83 183.07 111.56 125 111.56" style="fill: rgb(255, 255, 255); transform-origin: 162.905px 70.695px;" id="elovl3kawmep9" class="animable"></polygon></g><g id="freepik--Chroma--inject-1" class="animable" style="transform-origin: 314.34px 233.32px;"><rect x="214.17" y="87.26" width="200.34" height="292.12" rx="9.77" style="fill: rgb(197, 63, 63); transform-origin: 314.34px 233.32px;" id="elhh5sb42sps9" class="animable"></rect><g id="elf412r6l3dw9"><path d="M412.4,369.61h0a2.1,2.1,0,0,0,2.11-2.11h0V99.14a2.1,2.1,0,0,0-2.1-2.12h0a2.1,2.1,0,0,0-2.11,2.11h0V367.49a2.1,2.1,0,0,0,2.1,2.12Z" style="opacity: 0.2; isolation: isolate; transform-origin: 412.405px 233.315px;" class="animable"></path></g></g><g id="freepik--character-1--inject-1" class="animable" style="transform-origin: 139.028px 277.087px;"><path d="M146,373c-4.11,2-3.94,1.61-6.29,2.65-2,.9-2.35,1.36-4,2.1-1.34.62-2-.62-2.46-2.22-.22-.8-.74-3.4-1.14-4.67l6.56-1.44a8,8,0,0,0,6.75.83C147.86,369.46,147.66,372.21,146,373Z" style="fill: rgb(38, 50, 56); transform-origin: 139.68px 373.666px;" id="eltcmv9pf1ofa" class="animable"></path><path d="M114.5,257.44s5.32,34.44,8.77,52c3.61,18.47,11.31,47.23,15,58.54-1,.86-4.77,1.9-7.07,1.85,0,0-16.88-27.7-19.7-53.46-12.79-28-16.5-49.23-14.57-57.67Z" style="fill: rgb(38, 50, 56); transform-origin: 117.36px 313.636px;" id="elx2kb57h3g1" class="animable"></path><path d="M138.38,367a18.18,18.18,0,0,0,1.16,2.34.49.49,0,0,1-.13.68l-.07,0a26.81,26.81,0,0,1-7.24,1.65.61.61,0,0,1-.57-.3l-1.24-2.14a.49.49,0,0,1,.16-.67.42.42,0,0,1,.14-.06l7.11-1.87A.58.58,0,0,1,138.38,367Z" style="fill: rgb(197, 63, 63); transform-origin: 134.922px 369.143px;" id="elejoc57kakkf" class="animable"></path><g id="elp64gyfhmza"><path d="M138.38,367a18.18,18.18,0,0,0,1.16,2.34.49.49,0,0,1-.13.68l-.07,0a26.81,26.81,0,0,1-7.24,1.65.61.61,0,0,1-.57-.3l-1.24-2.14a.49.49,0,0,1,.16-.67.42.42,0,0,1,.14-.06l7.11-1.87A.58.58,0,0,1,138.38,367Z" style="fill: rgb(255, 255, 255); opacity: 0.3; isolation: isolate; transform-origin: 134.922px 369.143px;" class="animable"></path></g><path d="M96.5,195.67c-4.46,2.21-6.16,11.23-2.28,14.05s-3.64,9.3,3.65,11.34,15.11-4.44,11.69-9.45-2-11.6-4.16-14.5C102,192.6,96.5,195.67,96.5,195.67Z" style="fill: rgb(38, 50, 56); transform-origin: 101.223px 208.048px;" id="elr1w66nugxch" class="animable"></path><path d="M108.74,379.38c-4.57.08-4.25-.2-6.82-.24-2.21,0-2.71.24-4.48.24-1.47,0-1.57-1.42-1.3-3.05.14-.82.39-1.82.56-3.14l6.93-.13a8,8,0,0,0,5.78,3.6C111.9,376.94,110.56,379.34,108.74,379.38Z" style="fill: rgb(38, 50, 56); transform-origin: 103.398px 376.227px;" id="el1vyh19v3vi" class="animable"></path><path d="M107.48,258.7s-1.58,34.8-1.68,52.73c-.1,18.82-3.73,48.53-2.37,60.34-1.09.65-5,.92-7.29.42,0,0-5.58-30.49-3.26-56.3-7-30-7.21-49.31-3.61-57.19Z" style="fill: rgb(38, 50, 56); transform-origin: 97.2243px 315.574px;" id="elbmps69gg02" class="animable"></path><path d="M103.77,370.77a18.39,18.39,0,0,0,.68,2.52.49.49,0,0,1-.27.64l-.07,0a26.44,26.44,0,0,1-7.43.19.58.58,0,0,1-.5-.4l-.78-2.35a.48.48,0,0,1,.28-.62l.15,0,7.33-.44A.6.6,0,0,1,103.77,370.77Z" style="fill: rgb(197, 63, 63); transform-origin: 99.9276px 372.303px;" id="elld9ft46ay" class="animable"></path><g id="el2cmtvnkzo2o"><path d="M103.77,370.77a18.39,18.39,0,0,0,.68,2.52.49.49,0,0,1-.27.64l-.07,0a26.44,26.44,0,0,1-7.43.19.58.58,0,0,1-.5-.4l-.78-2.35a.48.48,0,0,1,.28-.62l.15,0,7.33-.44A.6.6,0,0,1,103.77,370.77Z" style="fill: rgb(255, 255, 255); opacity: 0.3; isolation: isolate; transform-origin: 99.9276px 372.303px;" class="animable"></path></g><path d="M110.79,224.48l1.54.3c.57.1,1.16.17,1.74.23a28,28,0,0,0,3.55.16,24.17,24.17,0,0,0,3.5-.28,25,25,0,0,0,3.41-.76l-2.31,3.38c0,.24.07.25,0,.13a2.75,2.75,0,0,0-.14-.49,12.14,12.14,0,0,0-.65-1.42c-.55-1-1.19-2.08-1.88-3.12s-1.4-2.13-2.12-3.2l-2.19-3.22h0a2,2,0,0,1,2.85-2.75c1.13.82,2.15,1.69,3.19,2.58s2,1.84,3,2.84a33.3,33.3,0,0,1,2.8,3.25,20.31,20.31,0,0,1,1.32,2,9.5,9.5,0,0,1,.61,1.34,6.64,6.64,0,0,1,.42,2.07,3.39,3.39,0,0,1-2.09,3.27l-.23.1a27.31,27.31,0,0,1-4.5,1.5c-.76.2-1.54.32-2.31.46a18.39,18.39,0,0,1-2.34.25,28.13,28.13,0,0,1-4.68,0c-.78-.08-1.56-.19-2.34-.32-.39-.07-.78-.14-1.18-.24s-.74-.18-1.3-.35a4,4,0,0,1,1.9-7.74Z" style="fill: rgb(255, 195, 189); transform-origin: 117.59px 223.107px;" id="elp5zocrquur" class="animable"></path><path d="M102.27,224.74c0-2.14,5.41-2.4,12.81-.35,2.74,3.76,2.15,11.28,2.15,11.28S101.73,234.26,102.27,224.74Z" style="fill: rgb(197, 63, 63); transform-origin: 109.77px 229.328px;" id="eleltvkp3be1f" class="animable"></path><path d="M115.32,232.71a96.1,96.1,0,0,1-.71,11.12c-.36,4.89.86,14.19-.68,14.87-3.38,2.36-13,1.68-24.66,0-.5-7-.32-11.83-4.74-27.46A5.74,5.74,0,0,1,88.24,224a5.45,5.45,0,0,1,1.2-.25c1-.1,2-.18,3.08-.23a77.53,77.53,0,0,1,11.2,0c1.21.11,2.48.26,3.68.43A9.28,9.28,0,0,1,115.32,232.71Z" style="fill: rgb(197, 63, 63); transform-origin: 99.7846px 241.772px;" id="elb9vpe333hxi" class="animable"></path><path d="M93.31,210.93c1,3.6,2.17,10.2-.17,12.61,0,0,3.41-.52,10.65,4,2.1-3,.54-4,.54-4-4.09-1-4.2-3.94-3.71-6.74Z" style="fill: rgb(255, 195, 189); transform-origin: 99.0137px 219.235px;" id="el1z1owa47611" class="animable"></path><path d="M102.27,226.6c-2.39.34-3.13,4-3.13,4s-5.73-4.06-7.55-6.92a21.61,21.61,0,0,0,2.09-1.32S100.88,225.23,102.27,226.6Z" style="fill: rgb(255, 255, 255); transform-origin: 96.93px 226.48px;" id="elzxzldwsyfz9" class="animable"></path><path d="M104.54,226.22a4.42,4.42,0,0,1,2.84,3c.55-5.25-1.94-5.73-1.94-5.73a3,3,0,0,0-2.16-.32A2.58,2.58,0,0,1,104.54,226.22Z" style="fill: rgb(255, 255, 255); transform-origin: 105.37px 226.157px;" id="elh1c38jf084t" class="animable"></path><g id="el3o8cly08q2u"><path d="M96.29,213.32l4.32,3.47a11.2,11.2,0,0,0-.19,2c-1.55-.22-3.79-1.9-4.07-3.51A5.38,5.38,0,0,1,96.29,213.32Z" style="opacity: 0.2; isolation: isolate; transform-origin: 98.4187px 216.055px;" class="animable"></path></g><path d="M88.49,206.14c2.12,5.53,2.9,7.9,6.67,10.05,5.67,3.23,12-.2,11.59-6.15-.38-5.35-3.79-13.49-10-14.3a7.58,7.58,0,0,0-8.26,10.4Z" style="fill: rgb(255, 195, 189); transform-origin: 97.3355px 206.533px;" id="elltqdirw7xq" class="animable"></path><path d="M84.28,202.14c7.07,2.62,8.41-1.75,12.22-3.63S102.41,198,103,195c.91-5-7.55-7-6-3.86-3.45-1.25-6.41,2.12-6.41,2.12-.47.62-2.81,2.67-2.81,2.67S79.12,197.14,84.28,202.14Z" style="fill: rgb(38, 50, 56); transform-origin: 92.854px 196.294px;" id="el9zkexzqnmsf" class="animable"></path><path d="M84.1,201.14c-4.46,2.21-4.58,8.81-.71,11.64s-3.54,7.73,3.75,9.78,12.55-2.87,9.13-7.88-1.13-12.54-4.17-14.54S84.1,201.14,84.1,201.14Z" style="fill: rgb(38, 50, 56); transform-origin: 88.9759px 211.245px;" id="elgqheefcuc9u" class="animable"></path><g id="elmc1un38o0b8"><path d="M96.48,205.65a3,3,0,0,0-2.26.24A5.77,5.77,0,0,0,96.48,205.65Z" style="opacity: 0.2; isolation: isolate; transform-origin: 95.35px 205.723px;" class="animable"></path></g><g id="eld3jht1vfu4g"><path d="M96.5,206.19a2.4,2.4,0,0,0-1.93.73A4.77,4.77,0,0,0,96.5,206.19Z" style="opacity: 0.2; isolation: isolate; transform-origin: 95.535px 206.551px;" class="animable"></path></g><path d="M97.73,205.43c.16.47.53.79.84.71s.42-.53.26-1-.53-.79-.84-.71S97.57,205,97.73,205.43Z" style="fill: rgb(38, 50, 56); transform-origin: 98.28px 205.285px;" id="elzad9dm07ic" class="animable"></path><path d="M103.51,204c.16.47.53.78.84.7s.42-.52.27-1-.54-.79-.84-.71S103.35,203.54,103.51,204Z" style="fill: rgb(38, 50, 56); transform-origin: 104.064px 203.845px;" id="el3p2anfw9s61" class="animable"></path><path d="M103.65,203.08l1-.62S104.38,203.49,103.65,203.08Z" style="fill: rgb(38, 50, 56); transform-origin: 104.15px 202.818px;" id="eltsrair9quwq" class="animable"></path><path d="M102.16,205.21a14.5,14.5,0,0,0,2.68,2.57,2,2,0,0,1-1.56.75Z" style="fill: rgb(237, 132, 126); transform-origin: 103.5px 206.87px;" id="elnkpxhfwvu4" class="animable"></path><path d="M101.17,211a4.55,4.55,0,0,0,.81-.13.14.14,0,0,0,.1-.16v0a.14.14,0,0,0-.18-.1,4.11,4.11,0,0,1-3.51-.67.14.14,0,1,0-.21.18l0,0A4.29,4.29,0,0,0,101.17,211Z" style="fill: rgb(38, 50, 56); transform-origin: 100.107px 210.445px;" id="elblwp3jvxf9t" class="animable"></path><path d="M88.32,210.91a4,4,0,0,0,2.81,1.82c1.39.13,1.69-1.59,1-3.12s-2.14-3.11-3.38-2.53S87.41,209.61,88.32,210.91Z" style="fill: rgb(255, 181, 115); transform-origin: 90.1015px 209.847px;" id="elzsxn2xb25f7" class="animable"></path><path d="M96,203.33a.23.23,0,0,0,.18-.12,2.13,2.13,0,0,1,1.72-1,.27.27,0,0,0,.28-.26v0a.32.32,0,0,0-.31-.29,2.64,2.64,0,0,0-2.19,1.3.29.29,0,0,0,.11.4A.3.3,0,0,0,96,203.33Z" style="fill: rgb(38, 50, 56); transform-origin: 96.9102px 202.514px;" id="ela88qulcnqld" class="animable"></path><path d="M104.15,200.55a.25.25,0,0,0,.19-.09.28.28,0,0,0,0-.4h0a3,3,0,0,0-2.57-.81.26.26,0,0,0-.2.31v0a.31.31,0,0,0,.36.21,2.46,2.46,0,0,1,2,.67A.32.32,0,0,0,104.15,200.55Z" style="fill: rgb(38, 50, 56); transform-origin: 102.994px 199.881px;" id="elobheqn8ruqc" class="animable"></path><path d="M97.87,204.5l1-.62S98.6,204.91,97.87,204.5Z" style="fill: rgb(38, 50, 56); transform-origin: 98.37px 204.238px;" id="elj3hx0gi0v4c" class="animable"></path><path d="M100.52,242.45l-1.83-.17a2.12,2.12,0,0,0-1.82.72l-2.12,2.44a4,4,0,0,0-.87,3.56l.19.78c3,.5,6.64-1.18,6.64-1.18l1.09-.37A1.76,1.76,0,0,0,103,246v0l-.69-2.16A2.05,2.05,0,0,0,100.52,242.45Z" style="fill: rgb(255, 195, 189); transform-origin: 98.4262px 246.071px;" id="el59ve5hzx9r8" class="animable"></path><path d="M115.3,207.24l1.59.93a2.21,2.21,0,0,1,1,1.66l.29,3.22a4,4,0,0,1-1.38,3.39l-.61.52c-2.74-1.36-4.7-4.85-4.7-4.85l-.67-.93a1.77,1.77,0,0,1,.34-2.49l0,0,1.83-1.35A2.06,2.06,0,0,1,115.3,207.24Z" style="fill: rgb(255, 195, 189); transform-origin: 114.325px 211.947px;" id="el6oy3pkkxkdf" class="animable"></path><path d="M89.77,233.57l-.7,1.84c-.24.65-.46,1.31-.68,2-.43,1.33-.81,2.67-1.16,4s-.64,2.69-.87,4-.37,2.69-.48,4l-.08-.76a1.92,1.92,0,0,0-.29-.5,1.51,1.51,0,0,0-.6-.43c-.33-.1-.2.05.09.07a8.75,8.75,0,0,0,2.7-.24c1-.2,2.15-.49,3.26-.81s2.25-.7,3.33-1h.1a2,2,0,0,1,1.86,3.47,34.93,34.93,0,0,1-3.16,2.26,29.45,29.45,0,0,1-3.51,1.86,13.79,13.79,0,0,1-4.41,1.22,6.81,6.81,0,0,1-3.45-.56,5.38,5.38,0,0,1-2-1.6,5.77,5.77,0,0,1-1-2.16,3.31,3.31,0,0,1-.08-.55v-.21a37.91,37.91,0,0,1,.12-5,39.66,39.66,0,0,1,.72-4.85,46.93,46.93,0,0,1,1.21-4.7c.26-.77.52-1.53.8-2.3a22,22,0,0,1,1-2.35,4,4,0,0,1,7.37,3.08Z" style="fill: rgb(255, 195, 189); transform-origin: 87.8075px 241.299px;" id="elu9fi0vm499d" class="animable"></path><path d="M89.21,223.8c-4,.62-5.62,1.84-8.9,9.91,1.49,3,8.46,5.89,8.46,5.89S94.24,229.67,89.21,223.8Z" style="fill: rgb(197, 63, 63); transform-origin: 85.8235px 231.7px;" id="eler04p1r7gs" class="animable"></path><path d="M104.76,229.58c.09.46,0,.84-.25.84s-.49-.38-.58-.84,0-.83.25-.83S104.67,229.14,104.76,229.58Z" style="fill: rgb(255, 255, 255); transform-origin: 104.345px 229.585px;" id="elylhaetcl78" class="animable"></path><path d="M105.2,233.5c0,.47-.15.82-.38.79s-.42-.45-.44-.91.15-.83.37-.79S105.18,233,105.2,233.5Z" style="fill: rgb(255, 255, 255); transform-origin: 104.789px 233.439px;" id="elh23ktsh3n1q" class="animable"></path><path d="M92.56,208.94c-.66-2.41-2.71-4-4.57-3.58s-2.84,2.73-2.18,5.14,2.71,4,4.57,3.58S93.22,211.35,92.56,208.94Z" style="fill: rgb(197, 63, 63); transform-origin: 89.185px 209.72px;" id="el8f84kp03fdr" class="animable"></path><g id="eln6ho6g3hcw"><path d="M90.11,209.86c-.57-1.86-1.92-3.23-3-3.07s-1.49,1.8-.91,3.65,1.92,3.23,3,3.07S90.69,211.71,90.11,209.86Z" style="opacity: 0.3; isolation: isolate; transform-origin: 88.155px 210.15px;" class="animable"></path></g><path d="M89.62,205.47c-1.25-4.12-1.64-9.37.9-12.29-1.15.11-3.08,2.34-3.08,2.34-1.19,1.9-1.82,6.07-.36,10.67A1.89,1.89,0,0,0,89.62,205.47Z" style="fill: rgb(197, 63, 63); transform-origin: 88.3764px 199.799px;" id="elbdyq7w9e00t" class="animable"></path><polygon points="180.5 203.16 132.49 215.86 138.72 219.81 181.88 208.39 180.5 203.16" style="fill: rgb(38, 50, 56); transform-origin: 157.185px 211.485px;" id="eldukchfpjwrh" class="animable"></polygon><polygon points="166.87 234.65 148.5 234.65 150.35 239.62 166.87 239.62 166.87 234.65" style="fill: rgb(38, 50, 56); transform-origin: 157.685px 237.135px;" id="el43kbxq4zwb1" class="animable"></polygon><g id="elkpltnp2ps38"><rect x="181.01" y="190.89" width="2.55" height="8.45" style="fill: rgb(38, 50, 56); transform-origin: 182.285px 195.115px; transform: rotate(-14.82deg);" class="animable"></rect></g><polygon points="189.96 185.96 181.95 188.82 185.1 200.73 193.48 199.26 189.96 185.96" style="fill: rgb(38, 50, 56); transform-origin: 187.715px 193.345px;" id="el62jbyya2ew5" class="animable"></polygon><g id="el1fho7dnwrvd"><polygon points="189.96 185.96 181.95 188.82 185.1 200.73 193.48 199.26 189.96 185.96" style="fill: rgb(255, 255, 255); opacity: 0.1; isolation: isolate; transform-origin: 187.715px 193.345px;" class="animable"></polygon></g><g id="eleoyx2fwgnrk"><polygon points="190.76 188.97 182.72 191.73 183.25 193.77 191.36 191.24 190.76 188.97" style="fill: rgb(255, 255, 255); opacity: 0.1; isolation: isolate; transform-origin: 187.04px 191.37px;" class="animable"></polygon></g><g id="elfh455s55h1"><rect x="191.69" y="186.81" width="1.34" height="11.27" style="fill: rgb(38, 50, 56); transform-origin: 192.36px 192.445px; transform: rotate(-15.0049deg);" class="animable"></rect></g><polygon points="197.13 182.87 190.96 184.5 195.07 200.03 199.45 198.87 197.13 182.87" style="fill: rgb(38, 50, 56); transform-origin: 195.205px 191.45px;" id="elu4l6xq42ybh" class="animable"></polygon><g id="el9sn2goa40ta"><polygon points="197.13 182.87 190.96 184.5 195.07 200.03 199.45 198.87 197.13 182.87" style="fill: rgb(255, 255, 255); opacity: 0.1; isolation: isolate; transform-origin: 195.205px 191.45px;" class="animable"></polygon></g><polygon points="168.89 191.07 163.45 187.9 161.66 181.12 115.46 193.34 115.6 195.85 111.23 197.01 112.11 212.6 116.48 211.44 116.96 219.97 168.34 206.38 182.93 202.52 179.18 188.35 168.89 191.07" style="fill: rgb(38, 50, 56); transform-origin: 147.08px 200.545px;" id="elp2nc1wlibeh" class="animable"></polygon><g id="el4kmxm6moj3f"><path d="M137.56,191.08v20.68a1.54,1.54,0,0,1-1.15,1.49l-16.19,4.28a1.53,1.53,0,0,1-1.88-1.1,1.57,1.57,0,0,1,0-.3l-.27-4.76a1.56,1.56,0,0,0-1.65-1.45,1.47,1.47,0,0,0-.29.05l-.72.19a1.53,1.53,0,0,1-1.88-1.1,1.57,1.57,0,0,1,0-.3l-.52-9.33a1.53,1.53,0,0,1,1.14-1.58l1.94-.51a1.55,1.55,0,0,0,1.15-1.58h0a1.54,1.54,0,0,1,1.14-1.58l17.35-4.59a1.54,1.54,0,0,1,1.88,1.1A1.74,1.74,0,0,1,137.56,191.08Z" style="fill: rgb(255, 255, 255); opacity: 0.1; isolation: isolate; transform-origin: 125.308px 203.561px;" class="animable"></path></g><g id="elo17jqbha1i"><path d="M178.48,191.71l2.18,8.23a1.54,1.54,0,0,1-1.08,1.89h0l-38.15,10.09a1.55,1.55,0,0,1-1.89-1.09,1.75,1.75,0,0,1-.05-.4V189.75a1.54,1.54,0,0,1,1.14-1.49l18.44-4.87a1.54,1.54,0,0,1,1.88,1.09l1,3.81a1.49,1.49,0,0,0,.72.94l5.43,3.16a1.59,1.59,0,0,0,1.17.16l7.31-1.94a1.54,1.54,0,0,1,1.9,1S178.48,191.69,178.48,191.71Z" style="fill: rgb(255, 255, 255); opacity: 0.1; isolation: isolate; transform-origin: 160.102px 197.655px;" class="animable"></path></g><circle cx="157.68" cy="227.67" r="8.51" style="fill: rgb(38, 50, 56); transform-origin: 157.68px 227.67px;" id="elbrgkyd33l2r" class="animable"></circle><g id="elhun7oexhsq6"><path d="M162.17,227.67a4.49,4.49,0,1,1-4.49-4.49h0A4.49,4.49,0,0,1,162.17,227.67Z" style="fill: rgb(255, 255, 255); opacity: 0.1; isolation: isolate; transform-origin: 157.68px 227.67px;" class="animable"></path></g><path d="M157.68,239.62h2.39V378.21a1.18,1.18,0,0,1-1.18,1.18h0a1.18,1.18,0,0,1-1.18-1.18V239.62Z" style="fill: rgb(38, 50, 56); transform-origin: 158.875px 309.505px;" id="elnkvo51owp1i" class="animable"></path><path d="M137.61,379.39h0a1.18,1.18,0,0,1-1.18-1.18.86.86,0,0,1,0-.16l15.12-138.43h2.38L138.78,378.38A1.18,1.18,0,0,1,137.61,379.39Z" style="fill: rgb(38, 50, 56); transform-origin: 145.178px 309.505px;" id="elp4bbcgrsaoj" class="animable"></path><path d="M180.13,379.39h0a1.16,1.16,0,0,1-1.16-1L163.8,239.62h2.39L181.3,378.05a1.18,1.18,0,0,1-1,1.33Z" style="fill: rgb(38, 50, 56); transform-origin: 172.556px 309.505px;" id="el9z1wwj994rd" class="animable"></path><polygon points="152.02 174.78 126.73 182.82 121.7 191.69 125.53 190.68 128.89 184.27 150.95 177.76 153.3 183.33 157.13 182.32 152.02 174.78" style="fill: rgb(38, 50, 56); transform-origin: 139.415px 183.235px;" id="elyk35x4hth4" class="animable"></polygon><path d="M164.74,219.28l-16.91,4.47a2.13,2.13,0,0,1-2.6-1.52,2.36,2.36,0,0,1-.06-.75l.34-3.46,19.72-5.22,1,3.87a2.12,2.12,0,0,1-1.48,2.61Z" style="fill: rgb(38, 50, 56); transform-origin: 155.735px 218.31px;" id="el9scifga8oth" class="animable"></path><g id="el1g2u2jk6q5f"><path d="M164.74,219.28l-16.91,4.47a2.13,2.13,0,0,1-2.6-1.52,2.36,2.36,0,0,1-.06-.75l.34-3.46,19.72-5.22,1,3.87a2.12,2.12,0,0,1-1.48,2.61Z" style="fill: rgb(255, 255, 255); opacity: 0.1; isolation: isolate; transform-origin: 155.735px 218.31px;" class="animable"></path></g></g><g id="freepik--character-2--inject-1" class="animable" style="transform-origin: 211.892px 313.79px;"><path d="M173.9,281.07c-.72,2.8-1.41,5.73-2,8.59s-1.17,5.77-1.49,8.56c-.09.71-.13,1.38-.19,2.07v1.15a1.48,1.48,0,0,0-.1-.36,2.12,2.12,0,0,0-.23-.48,2.47,2.47,0,0,0-.89-.87,1.85,1.85,0,0,0-1.12-.29h0a2.8,2.8,0,0,0,.64-.13c.54-.17,1.17-.43,1.81-.7,2.56-1.13,5.24-2.58,7.9-3.93h0a1.75,1.75,0,0,1,2.31.92,1.74,1.74,0,0,1-.31,1.88,45.25,45.25,0,0,1-3.46,3.18,38.18,38.18,0,0,1-3.82,2.88,17.54,17.54,0,0,1-2.27,1.3,9.33,9.33,0,0,1-1.52.58,5.71,5.71,0,0,1-1.17.19,3.91,3.91,0,0,1-2.22-.53,3.71,3.71,0,0,1-1.29-1.26,4.89,4.89,0,0,1-.35-.73,4.74,4.74,0,0,1-.16-.65,4.1,4.1,0,0,1-.06-.49v-.49l-.06-1.29c0-.82,0-1.67.06-2.47a72.36,72.36,0,0,1,1.22-9.4c.57-3.08,1.27-6,2.13-9.1A3.5,3.5,0,0,1,174,281h0Z" style="fill: rgb(181, 91, 82); transform-origin: 172.269px 291.248px;" id="ell0f61x8sqzl" class="animable"></path><path d="M186.53,294.34l-1.15,2.8a1.76,1.76,0,0,1-1.63,1.1H181s-3.42,1.46-4.88-.36l.11-2,4.92-3.06a2.63,2.63,0,0,1,1.69-.38l2.77.28a1.16,1.16,0,0,1,1,1.27A1.06,1.06,0,0,1,186.53,294.34Z" style="fill: rgb(181, 91, 82); transform-origin: 181.368px 295.608px;" id="ellivi9ffnj2g" class="animable"></path><path d="M178.55,259.37c.71,3.53,1.45,10-1,12.38a33.39,33.39,0,0,1,10.6,8.55,6.25,6.25,0,0,0,1.43-8.07c-4-.91-3.67-4.73-3.18-7.52Z" style="fill: rgb(181, 91, 82); transform-origin: 184.009px 269.835px;" id="elqvx3di8mwa" class="animable"></path><path d="M175.56,273.14c3.29,3.36.36,13.83-2.15,17.79l-8.66-4.79s.3-6.18,2-9.41C168.55,273.26,173.32,270.85,175.56,273.14Z" style="fill: rgb(197, 63, 63); transform-origin: 170.888px 281.586px;" id="elrs6f60fivuo" class="animable"></path><path d="M199.31,280.61c-.19,5.15.51,14.37-2.31,28.94l-24.19-.72c.64-8.93-1.89-15.11-4.65-30.65a5.07,5.07,0,0,1,4.1-5.88l.2,0c1.55-.22,3.31-.42,5.08-.52a77.67,77.67,0,0,1,11-.07c1.19.1,2.41.24,3.58.4A8.29,8.29,0,0,1,199.31,280.61Z" style="fill: rgb(197, 63, 63); transform-origin: 183.698px 290.549px;" id="elj9h8gt4yldp" class="animable"></path><path d="M189.06,250.91c.17.45.55.72.84.6s.39-.57.22-1-.55-.72-.85-.61S188.88,250.46,189.06,250.91Z" style="fill: rgb(38, 50, 56); transform-origin: 189.585px 250.708px;" id="elhz610tep5a6" class="animable"></path><path d="M189.15,250l1-.73S189.88,250.29,189.15,250Z" style="fill: rgb(38, 50, 56); transform-origin: 189.65px 249.661px;" id="elsw214ish9xl" class="animable"></path><path d="M189.4,251.58a13,13,0,0,0,2.71,2.25,2,2,0,0,1-1.48.91Z" style="fill: rgb(160, 39, 36); transform-origin: 190.755px 253.16px;" id="elrm430lrl50p" class="animable"></path><path d="M188.08,246.84a.31.31,0,0,0-.05-.28.28.28,0,0,0-.4,0h0a2.84,2.84,0,0,0-1.06,2.35.28.28,0,0,0,.31.24h0a.26.26,0,0,0,.24-.3h0A2.22,2.22,0,0,1,188,247,.24.24,0,0,0,188.08,246.84Z" style="fill: rgb(38, 50, 56); transform-origin: 187.33px 247.814px;" id="elpu41pxz316b" class="animable"></path><path d="M173.4,255.42c2.36,5.42,3.24,7.77,7.07,9.6,5.77,2.75,11.92-1.33,11.24-7.35-.62-5.41-4.37-13.38-10.61-13.61a8.06,8.06,0,0,0-8.4,7.7A8,8,0,0,0,173.4,255.42Z" style="fill: rgb(181, 91, 82); transform-origin: 182.227px 254.974px;" id="elpqlbdo8j1oq" class="animable"></path><path d="M184.91,246.85c3.16,1.45,2.21,6.25,1.71,7.12,3.17,3.79.33,10.84,6.37,11.13-.33,4.71-15.45,6.12-19.58,4.12-2.77-1.34-5.48-6.68-.85-11.14-3.36-4.92-2.64-9.09,0-11.88C177.63,240.82,185.49,241.93,184.91,246.85Z" style="fill: rgb(38, 50, 56); transform-origin: 181.525px 256.369px;" id="eluxrx7k1th3" class="animable"></path><path d="M173.52,254.9c-5.07,5.85-9.22,17.82.87,8.81,6.3-5.63,11-15.56,11-15.56Z" style="fill: rgb(197, 63, 63); transform-origin: 176.798px 257.555px;" id="elyaohhii203j" class="animable"></path><g id="el32t20jpx4wh"><path d="M173.52,254.9c-5.07,5.85-9.22,17.82.87,8.81,6.3-5.63,11-15.56,11-15.56Z" style="fill: rgb(255, 255, 255); opacity: 0.7; isolation: isolate; transform-origin: 176.798px 257.555px;" class="animable"></path></g><path d="M172,259.86c7.45-1.65,14.76-12.16,15.3-14.09-1.45-2.27-5.2-4.32-8.23-3.84a12.32,12.32,0,0,0-9.86,9.85C168.79,254,172,259.86,172,259.86Z" style="fill: rgb(197, 63, 63); transform-origin: 178.236px 250.86px;" id="elkunlxzoyov" class="animable"></path><path d="M184.26,255a4.94,4.94,0,0,0,2.83,2.48c1.64.54,2.54-.9,2.15-2.49-.35-1.43-1.62-3.44-3.3-3.29a2.21,2.21,0,0,0-1.68,3.3Z" style="fill: rgb(181, 91, 82); transform-origin: 186.648px 254.644px;" id="elw6gd0wi2ta" class="animable"></path><polygon points="226.37 376.13 232.08 375.59 228.24 361.52 222.52 362.06 226.37 376.13" style="fill: rgb(181, 91, 82); transform-origin: 227.3px 368.825px;" id="ela375xw3vru" class="animable"></polygon><path d="M242.38,377.27c-3.6-.57-5.54-.72-9.36-3.07a2.26,2.26,0,0,0-1.31-.41l-6,.83a.44.44,0,0,0-.39.45l-.29,4a2.15,2.15,0,0,0,1.81,2.45l.27,0c1.89-.17,4-.82,6-.94a70.14,70.14,0,0,0,9.15-.77C244.39,379.46,243.6,377.46,242.38,377.27Z" style="fill: rgb(38, 50, 56); transform-origin: 234.297px 377.655px;" id="el20fjt7746jsi" class="animable"></path><polygon points="246.16 358.77 250.72 356.43 244.73 344.85 240.08 349.64 246.16 358.77" style="fill: rgb(181, 91, 82); transform-origin: 245.4px 351.81px;" id="eltvnvnfabfpg" class="animable"></polygon><path d="M250.79,354.94l-5.62,2.81a.52.52,0,0,0-.26.61l1.17,3.87a2.29,2.29,0,0,0,2.91,1.42l.26-.11c1.78-.7,3.17-2.43,5.36-3.54,3.19-1.62,5-2,7.61-4.7,1.75-1.84-.51-2.59-1.53-2.17-2.56,1.05-3.31,1.94-8.32,1.56A3.05,3.05,0,0,0,250.79,354.94Z" style="fill: rgb(38, 50, 56); transform-origin: 253.876px 358.395px;" id="elhhnai3rg5qm" class="animable"></path><path d="M188.57,309.14s39.16-5.8,43.22,4.25c7.05,17.46,17.54,38.61,17.54,38.61l-6.19,3.31s-16.22-16.27-22.3-33.82c-7.25,2.35-28.13,7.54-36.58,7.54-9,0-14.93-5.34-11.67-18.12a2.58,2.58,0,0,1,2.5-1.93C180.78,309,188.57,309.14,188.57,309.14Z" style="fill: rgb(197, 63, 63); transform-origin: 210.508px 331.392px;" id="elhcvydpvmo" class="animable"></path><g id="elv7mv7xmew0t"><path d="M188.57,309.14s39.16-5.8,43.22,4.25c7.05,17.46,17.54,38.61,17.54,38.61l-6.19,3.31s-16.22-16.27-22.3-33.82c-7.25,2.35-28.13,7.54-36.58,7.54-9,0-14.93-5.34-11.67-18.12a2.58,2.58,0,0,1,2.5-1.93C180.78,309,188.57,309.14,188.57,309.14Z" style="fill: rgb(255, 255, 255); opacity: 0.5; isolation: isolate; transform-origin: 210.508px 331.392px;" class="animable"></path></g><path d="M196.27,310.24s28.2,3,28.47,14.41c.45,18.83,6.22,45.78,6.22,45.78l-6.33.59s-11-21.24-13.49-39.64c-11.46.75-19.8.55-28.16-.75-9.36-1.45-16.18-8-9.53-21.69C179,307.82,196.27,310.24,196.27,310.24Z" style="fill: rgb(197, 63, 63); transform-origin: 200.876px 339.832px;" id="el61ovikdtb7a" class="animable"></path><g id="el60xgnwlwcha"><path d="M196.27,310.24s28.2,3,28.47,14.41c.45,18.83,6.22,45.78,6.22,45.78l-6.33.59s-11-21.24-13.49-39.64c-11.46.75-19.8.55-28.16-.75-9.36-1.45-16.18-8-9.53-21.69C179,307.82,196.27,310.24,196.27,310.24Z" style="fill: rgb(255, 255, 255); opacity: 0.7; isolation: isolate; transform-origin: 200.876px 339.832px;" class="animable"></path></g><path d="M172.49,307.4l-.68,2.15c-.09.16.1.34.38.35l24.9.74c.22,0,.4-.1.42-.23l.28-2.16c0-.15-.16-.28-.4-.29l-24.5-.73A.45.45,0,0,0,172.49,307.4Z" style="fill: rgb(255, 255, 255); transform-origin: 184.789px 308.934px;" id="el6zcvgcy3th" class="animable"></path><path d="M175.7,310.24H175c-.13,0-.22-.08-.21-.16l.39-2.8c0-.08.13-.15.26-.14h.65c.13,0,.23.07.22.15l-.35,2.85A.75.75,0,0,1,175.7,310.24Z" style="fill: rgb(197, 63, 63); transform-origin: 175.55px 308.69px;" id="eldlxcmw9wie5" class="animable"></path><path d="M195.24,310.82h-.66c-.13,0-.22-.07-.21-.16l.39-2.8c0-.08.13-.15.26-.14h.65c.13,0,.23.07.22.15l-.39,2.81C195.49,310.76,195.37,310.82,195.24,310.82Z" style="fill: rgb(197, 63, 63); transform-origin: 195.13px 309.27px;" id="el61nnnh8xw87" class="animable"></path><path d="M185.47,310.53h-.66c-.13,0-.22-.08-.21-.16l.39-2.8c0-.08.13-.15.26-.14h.65c.13,0,.23.07.22.15l-.39,2.81C185.72,310.47,185.6,310.53,185.47,310.53Z" style="fill: rgb(197, 63, 63); transform-origin: 185.36px 308.98px;" id="elcbmb9w4tppm" class="animable"></path><path d="M200.94,283.91c.12,1.08.29,2.41.52,3.61s.48,2.43.77,3.62a28.59,28.59,0,0,0,1.09,3.43,21.51,21.51,0,0,0,1.47,3.06l.11.18h0a.58.58,0,0,0,.1.12,5.67,5.67,0,0,0,.5.48c.41.35.9.73,1.41,1.09,1,.72,2.1,1.47,3.21,2.17l6.72,4.37h0a1.75,1.75,0,0,1-1.47,3.14,75.8,75.8,0,0,1-7.76-2.85c-1.27-.57-2.55-1.14-3.82-1.84-.64-.35-1.28-.71-2-1.16a11.77,11.77,0,0,1-1.06-.8,5.76,5.76,0,0,1-.62-.59l-.35-.42-.18-.24a27,27,0,0,1-4-8.22,36.58,36.58,0,0,1-1-4.26c-.13-.71-.25-1.43-.35-2.15s-.17-1.41-.22-2.26a3.51,3.51,0,1,1,7-.62Z" style="fill: rgb(181, 91, 82); transform-origin: 205.817px 294.91px;" id="elmrte4dbs4vr" class="animable"></path><path d="M196.06,273.71c6.56,4.49,6.74,13.6,6.74,13.6l-8.41,2.47a11.73,11.73,0,0,1-4.33-8.91C190,276.54,193.67,272.08,196.06,273.71Z" style="fill: rgb(197, 63, 63); transform-origin: 196.43px 281.573px;" id="eltcw0ijq4y4" class="animable"></path><path d="M223.13,307.21l-2-1.39a2.48,2.48,0,0,0-1.64-.46l-5,.47L213.07,308a8.36,8.36,0,0,0,4.49,2l2.54,1.42a1,1,0,0,0,1.22-.16l2.06-2.14a1.35,1.35,0,0,0-.19-1.9Z" style="fill: rgb(181, 91, 82); transform-origin: 218.378px 308.456px;" id="elve3ityfbyvj" class="animable"></path><path d="M243.45,355.42l6-2.85a.84.84,0,0,0,.42-1.05l-.77-2.1a.84.84,0,0,0-1.06-.51.61.61,0,0,0-.14.07l-6.59,3.68a.85.85,0,0,0-.16,1.35l1.4,1.27A.85.85,0,0,0,243.45,355.42Z" style="fill: rgb(255, 255, 255); transform-origin: 245.405px 352.178px;" id="elxdaxk1m5ps" class="animable"></path><path d="M224.43,372.38l6.59-.59a.85.85,0,0,0,.76-.84v-2.24a.85.85,0,0,0-.83-.85l-.17,0L223.32,369a.84.84,0,0,0-.71.94.72.72,0,0,0,.09.27l.87,1.68A.85.85,0,0,0,224.43,372.38Z" style="fill: rgb(255, 255, 255); transform-origin: 227.191px 370.122px;" id="elcc12bvv8o2h" class="animable"></path><rect x="168.55" y="326.83" width="43.85" height="12.35" rx="3.47" style="fill: rgb(38, 50, 56); transform-origin: 190.475px 333.005px;" id="elez87yux52le" class="animable"></rect><rect x="188.06" y="339.19" width="4.82" height="45.64" style="fill: rgb(38, 50, 56); transform-origin: 190.47px 362.01px;" id="elifnx1n66qah" class="animable"></rect><g id="elqwgwpgw0ezh"><rect x="188.06" y="339.19" width="4.82" height="45.64" style="fill: rgb(255, 255, 255); opacity: 0.6; isolation: isolate; transform-origin: 190.47px 362.01px;" class="animable"></rect></g><g id="elwy63fabm8ak"><polygon points="188.07 339.19 192.89 339.19 192.89 343.85 188.07 342.08 188.07 339.19" style="opacity: 0.2; isolation: isolate; transform-origin: 190.48px 341.52px;" class="animable"></polygon></g><path d="M202.61,381.88l5.9,1.75a1.07,1.07,0,0,1-.3,2.09H172.75a1.07,1.07,0,0,1-.31-2.09l5.9-1.75A42.48,42.48,0,0,1,202.61,381.88Z" style="fill: rgb(38, 50, 56); transform-origin: 190.475px 382.915px;" id="elu1nvsr2cmf" class="animable"></path><path d="M169.47,317H199a4.12,4.12,0,0,0,4.23-4,4.19,4.19,0,0,0-.09-1l-2.62-15.48a6.19,6.19,0,0,0-5.84-5H165.16a4.11,4.11,0,0,0-4.24,4,4.36,4.36,0,0,0,.1,1L163.64,312A6.18,6.18,0,0,0,169.47,317Z" style="fill: rgb(38, 50, 56); transform-origin: 182.076px 304.26px;" id="elocmbhtjd2w" class="animable"></path><path d="M195.23,332.88a1.5,1.5,0,0,1-1.48-1.25l-5.24-32a1.52,1.52,0,1,1,3-.48l5.24,32a1.49,1.49,0,0,1-1.22,1.72h0A.94.94,0,0,1,195.23,332.88Z" style="fill: rgb(197, 63, 63); transform-origin: 192.626px 315.353px;" id="elm873g8g9ds" class="animable"></path><path d="M175.32,332.88a1.49,1.49,0,0,1-1.47-1.25l-5.24-32a1.52,1.52,0,1,1,3-.48l5.24,32a1.5,1.5,0,0,1-1.24,1.72A.94.94,0,0,1,175.32,332.88Z" style="fill: rgb(197, 63, 63); transform-origin: 172.725px 315.352px;" id="elk55gis18p1t" class="animable"></path></g><g id="freepik--character-3--inject-1" class="animable" style="transform-origin: 311.685px 246.768px;"><path d="M263,151.88c-.06,2.2-.25,4.18-.45,6.26s-.48,4.12-.86,6.2-.8,4.2-1.36,6.27a38.37,38.37,0,0,1-2.32,6.58l-.23.51a5,5,0,0,1-2.79,2.56,39.8,39.8,0,0,1-10.84,2.36,38.13,38.13,0,0,1-5.45,0c-.9-.06-1.81-.18-2.71-.31l-1.36-.24c-.47-.09-.87-.2-1.47-.34a3.69,3.69,0,0,1,0-7.19l1-.23c.21-.05.61-.08,1-.13l1.06-.13c.72-.11,1.44-.24,2.15-.38a42.74,42.74,0,0,0,4.2-1,37.66,37.66,0,0,0,4-1.36,39.39,39.39,0,0,0,3.73-1.73l-3,3.07a36.67,36.67,0,0,0,1.12-4.74c.31-1.72.54-3.54.75-5.37s.37-3.7.52-5.57.26-3.8.37-5.55v-.1a6.51,6.51,0,0,1,13,.58Z" style="fill: rgb(38, 50, 56); transform-origin: 246.681px 164.016px;" id="elm1jo9d0z9u" class="animable"></path><path d="M233.9,174.8l-4-1.89-1.12,6.91a13.13,13.13,0,0,0,2.71.53,3.49,3.49,0,0,0,3.67-3.29,1.34,1.34,0,0,0,0-.2h0A2.3,2.3,0,0,0,233.9,174.8Z" style="fill: rgb(255, 181, 115); transform-origin: 231.972px 176.632px;" id="elbi4cdtbwbm" class="animable"></path><path d="M224.2,174.89v2.49a2,2,0,0,0,1.71,2l2.88.46,1.12-6.91-3.68-.06a2,2,0,0,0-2,2Z" style="fill: rgb(255, 181, 115); transform-origin: 227.055px 176.355px;" id="eldvnr3r2s7di" class="animable"></path><path d="M317.11,240.68c-5.46-18.16-11.53-41.48-21.08-59.87l-11.84,6.68-9.09,5.14s16.78,34,29.08,57.53c3.4,6.51,15.21,17.68,25.27,30.31,3.65,4.58,10.2,12.2,13.2,14.7l8.42-3.33c-2.15-3.66-1.07-3.79-5.7-12.17C338.18,267.39,326.49,252.38,317.11,240.68Z" style="fill: rgb(38, 50, 56); transform-origin: 313.085px 237.99px;" id="elr89cnvm42v" class="animable"></path><path d="M381.14,240.5c-15.08-5.39-30-16.29-39.65-21.74-14.24-11.7-22.07-34.52-37.51-42.48l-21.63,15.21s25.31,27.92,48.91,41.65c4.37,2.54,20.62,11.67,36.9,15.58,5.9,1.42,14.14,3.88,18.34,4.11l6-8.21C387.32,242.89,384.23,241.6,381.14,240.5Z" style="fill: rgb(38, 50, 56); transform-origin: 337.425px 214.555px;" id="elgxkhe8we0d" class="animable"></path><path d="M349.6,288.68c1.47,3.16,7.55,5.28,5.09,8.29-3.43,4.18-2.2,13.13-10.2,13.13-2.59,0-7-.12-5.32-2,2.54-2.94,6.24-9.26,3.48-12.91C343.62,290.34,349.6,288.68,349.6,288.68Z" style="fill: rgb(38, 50, 56); transform-origin: 347.034px 299.39px;" id="elqk7oq84j82r" class="animable"></path><path d="M386.06,246.14a4.3,4.3,0,0,1,4.86-1.92c3.17.85,7.17,1.12,7,4.07-.26,5.79,3.42,15.34-.76,18.58-3.58,2.77-5.28-3.32-5.86-5.77-.25-1.08-2.22-6.64-6.41-8.45A8.07,8.07,0,0,1,386.06,246.14Z" style="fill: rgb(38, 50, 56); transform-origin: 391.91px 255.817px;" id="eln08ycscz7t" class="animable"></path><path d="M272.9,133.32a105.34,105.34,0,0,0-18.68,10.82A10.32,10.32,0,0,0,251.09,157c5.38,10.74,14.42,19.22,24,35.59,4.52,1.49,19.4-5.61,28.9-16.36-3.26-4.32-11.53-19.65-18.77-37.93a9.16,9.16,0,0,0-11.88-5.19A3.38,3.38,0,0,0,272.9,133.32Z" style="fill: rgb(38, 50, 56); transform-origin: 277.01px 162.632px;" id="elifg43orq5z8" class="animable"></path><path d="M262.24,122.35l-5.35,11.56c2.3,1.72,4.13,3.91,2.08,7.06a8.68,8.68,0,0,0-1.23,7.72c.81,2.13,2.26,4,4.58,4.16,5.17-4.69,8.7-13.79,9.21-17.82C269.51,133.37,263.75,126.62,262.24,122.35Z" style="fill: rgb(38, 50, 56); transform-origin: 264.21px 137.6px;" id="elltjo02l8nk" class="animable"></path><g id="elzh5omwrarq"><path d="M260.06,127.06l-3.17,6.85a10.89,10.89,0,0,1,1.78,1.61c2.2-1.1,4-4.66,3.18-6.34A6.54,6.54,0,0,0,260.06,127.06Z" style="opacity: 0.2; isolation: isolate; transform-origin: 259.471px 131.29px;" class="animable"></path></g><path d="M262.64,117.61c2.15,5.3,1,8.53-.37,12.39-2,5.82-9.54,6.46-13.24,1.9-3.33-4.1-6.75-12.54-2.82-17.1C252.3,107.71,260.49,112.32,262.64,117.61Z" style="fill: rgb(38, 50, 56); transform-origin: 254.142px 123.039px;" id="elmd1lclquh4" class="animable"></path><path d="M256.41,121.14c1.83,3.88,3.09,6.08,2.3,8.92-1.19,4.28-6.64,4.77-9.56,1.44-2.63-3-5.19-8.86-2.43-12.12S254.57,117.25,256.41,121.14Z" style="fill: rgb(255, 181, 115); transform-origin: 252.24px 125.575px;" id="eliq51sftu14l" class="animable"></path><path d="M252.59,129.83a4.49,4.49,0,0,0,2.21-2.69.18.18,0,0,0-.12-.19.16.16,0,0,0-.18.12,4.27,4.27,0,0,1-2.58,2.76.15.15,0,0,0-.08.2h0a.16.16,0,0,0,.2.09Z" style="fill: rgb(38, 50, 56); transform-origin: 253.314px 128.538px;" id="el3vaw827ccrd" class="animable"></path><path d="M252.3,122.41c.2.42.14.86-.13,1s-.66-.1-.86-.52-.14-.87.13-1S252.1,122,252.3,122.41Z" style="fill: rgb(38, 50, 56); transform-origin: 251.805px 122.652px;" id="elh6tqc0relr4" class="animable"></path><path d="M247.74,125.08c.2.42.14.87-.13,1s-.67-.11-.87-.53-.14-.86.14-1S247.54,124.66,247.74,125.08Z" style="fill: rgb(38, 50, 56); transform-origin: 247.24px 125.313px;" id="eln7jvrcc01d" class="animable"></path><path d="M249.63,124.7a16.79,16.79,0,0,1-.29,4.53,2.7,2.7,0,0,0,2.19-.57Z" style="fill: rgb(237, 137, 62); transform-origin: 250.435px 126.986px;" id="elcz0nssbeuxm" class="animable"></path><path d="M253.14,120.82a.26.26,0,0,0,.15-.35.27.27,0,0,0-.09-.12,2.75,2.75,0,0,0-2.45-.52.28.28,0,0,0-.1.38.27.27,0,0,0,.28.14h0a2.2,2.2,0,0,1,1.93.43A.26.26,0,0,0,253.14,120.82Z" style="fill: rgb(38, 50, 56); transform-origin: 251.963px 120.289px;" id="el7t4yb3lboh" class="animable"></path><path d="M245.2,124.64a.25.25,0,0,0,.13-.22,2.15,2.15,0,0,1,.88-1.76.26.26,0,0,0,.09-.37.28.28,0,0,0-.38-.09,2.67,2.67,0,0,0-1.14,2.21.28.28,0,0,0,.27.28A.27.27,0,0,0,245.2,124.64Z" style="fill: rgb(38, 50, 56); transform-origin: 245.561px 123.425px;" id="el6pfqkhhv6p" class="animable"></path><path d="M279.41,133c1.22.3,2.2.58,3.28.92l3.13,1a65.33,65.33,0,0,1,6.18,2.56,45.05,45.05,0,0,1,6.13,3.46,23.9,23.9,0,0,1,6,5.61l.23.3a5,5,0,0,1,.86,2.11,21.45,21.45,0,0,1,0,6.4,22.12,22.12,0,0,1-1.78,5.94,24.41,24.41,0,0,1-3.13,5,25.91,25.91,0,0,1-1.95,2.11l-1.06,1-.58.47-.67.51a1.86,1.86,0,0,1-2.61-.33h0a2.5,2.5,0,0,1-.21-.35L291,164.82l.17-.33.25-.41c.17-.28.34-.57.5-.86.32-.59.6-1.19.86-1.79a19,19,0,0,0,1.18-3.6,13.94,13.94,0,0,0,.32-3.41,12.67,12.67,0,0,0-.53-3.17l1.09,2.4a16.34,16.34,0,0,0-3.27-2.33,45.34,45.34,0,0,0-4.73-2.23c-1.7-.67-3.46-1.32-5.25-1.91-.9-.3-1.8-.58-2.71-.85l-2.62-.76-.2-.06A6.5,6.5,0,0,1,279.41,133Z" style="fill: rgb(38, 50, 56); transform-origin: 288.62px 151.841px;" id="elni4zknzdzj" class="animable"></path><path d="M291,166.76l-3.58,2.54,5.48,4.35a12.9,12.9,0,0,0,1.79-2.11,3.47,3.47,0,0,0-1.08-4.8l-.18-.11h0A2.27,2.27,0,0,0,291,166.76Z" style="fill: rgb(255, 181, 115); transform-origin: 291.326px 169.994px;" id="elbqor85ep50u" class="animable"></path><path d="M286.39,175.27l2.18,1.2a2,2,0,0,0,2.57-.52l1.8-2.3-5.48-4.35-1.84,3.19a2,2,0,0,0,.7,2.74Z" style="fill: rgb(255, 181, 115); transform-origin: 289.14px 173.015px;" id="el1554c3hsa08" class="animable"></path><path d="M271.29,162.21h-.05l-18.65-7.86c-.05,0-.07,0-.08-.1a.13.13,0,0,1,.06-.11l9.82-6.61,13.89-10.39a.12.12,0,0,1,.14,0,.11.11,0,0,1,.06.13l-5.07,24.87a.15.15,0,0,1-.06.09Zm-18.39-8,18.3,7.71,5-24.34-13.63,10.15Z" style="fill: rgb(255, 255, 255); transform-origin: 264.497px 149.674px;" id="elwe80ujzs4ff" class="animable"></path><path d="M238.53,178.47a.12.12,0,0,1-.12-.1.13.13,0,0,1,.09-.15l13.85-3,.16-21a.13.13,0,0,1,.13-.13h0a.12.12,0,0,1,.12.12h0l-.16,21.15a.12.12,0,0,1-.1.12l-13.94,3Z" style="fill: rgb(255, 255, 255); transform-origin: 245.584px 166.285px;" id="ela4x8cjmfrnb" class="animable"></path><path d="M296.26,164.4h0a.13.13,0,0,1-.09-.16L300,148.53l-23.7-11.15a.12.12,0,0,1-.06-.16h0a.13.13,0,0,1,.16-.07h0l23.73,11.19a.11.11,0,0,1,.07.14h0l-3.83,15.81A.12.12,0,0,1,296.26,164.4Z" style="fill: rgb(255, 255, 255); transform-origin: 288.217px 150.772px;" id="elapjtqwidfi" class="animable"></path><path d="M281.91,195.76h-.07a.13.13,0,0,1,0-.12l1.85-14.29-12.51-19.21a.14.14,0,0,1,0-.17.12.12,0,0,1,.17,0h0l12.49,19.17,19.51,2.31a.13.13,0,0,1,.1.1.1.1,0,0,1-.06.13h0L282,195.74Zm2-14.32-1.8,14L303,183.73Z" style="fill: rgb(255, 255, 255); transform-origin: 287.304px 178.847px;" id="el6kqd9sphbt" class="animable"></path><path d="M344.43,291.05h-.09l-19.93-23.58-15.59-21.78-16.59-28.24L281.8,195.69a.13.13,0,0,1,.21-.16s0,0,0,.05l10.42,21.71L309,245.52l15.58,21.75,19.92,23.58a.12.12,0,0,1,0,.17h0A.09.09,0,0,1,344.43,291.05Z" style="fill: rgb(255, 255, 255); transform-origin: 313.154px 243.264px;" id="elzri0hxt82i" class="animable"></path><path d="M386,249h0l-26.72-9.26L332.93,225.5h0l-20.07-21.68h0l-9.53-20.1a.13.13,0,0,1,.06-.17.12.12,0,0,1,.16.06h0l9.45,20,20,21.65,26.31,14.23,26.7,9.25a.12.12,0,0,1,.08.15h0A.14.14,0,0,1,386,249Z" style="fill: rgb(255, 255, 255); transform-origin: 344.707px 216.269px;" id="elq67gc0wseje" class="animable"></path><path d="M247.72,116.52a.67.67,0,0,1-.69.65.66.66,0,0,1-.65-.68.67.67,0,0,1,.52-.64A.75.75,0,0,1,247.72,116.52Z" style="fill: rgb(255, 255, 255); transform-origin: 247.05px 116.508px;" id="elzo7fwn0vp8c" class="animable"></path><path d="M263,147.27a.67.67,0,0,1-.93,1,.56.56,0,0,1-.17-.26.67.67,0,0,1,.93-1A.56.56,0,0,1,263,147.27Z" style="fill: rgb(255, 255, 255); transform-origin: 262.45px 147.64px;" id="eln4kfrki2j3p" class="animable"></path><path d="M271.81,161.69a.68.68,0,0,1-.34.89.67.67,0,0,1-.66-1.16A.76.76,0,0,1,271.81,161.69Z" style="fill: rgb(255, 255, 255); transform-origin: 271.194px 161.986px;" id="elkxt40uwssbm" class="animable"></path><path d="M284.29,180.9a.75.75,0,0,1,0,1.06.84.84,0,0,1-1.19.13.85.85,0,1,1,1.06-1.32Z" style="fill: rgb(255, 255, 255); transform-origin: 283.615px 181.405px;" id="ele2ihunrtv85" class="animable"></path><path d="M303.85,183.22a.68.68,0,0,1,.19.93.67.67,0,0,1-.93.18.63.63,0,0,1-.26-.32.66.66,0,1,1,1-.79Z" style="fill: rgb(255, 255, 255); transform-origin: 303.366px 183.632px;" id="elhuqp0vukz" class="animable"></path><path d="M333.38,224.92a.67.67,0,1,1-.9,1h0a.68.68,0,1,1,.9-1Z" style="fill: rgb(255, 255, 255); transform-origin: 332.889px 225.383px;" id="elk35zdz8alb9" class="animable"></path><path d="M359.71,239.14a.68.68,0,0,1,.25.92.67.67,0,0,1-.92.24.69.69,0,0,1-.23-.22.68.68,0,0,1-.25-.92.67.67,0,0,1,.92-.24A.69.69,0,0,1,359.71,239.14Z" style="fill: rgb(255, 255, 255); transform-origin: 359.26px 239.61px;" id="elssx1c88mf2p" class="animable"></path><path d="M313.32,203.24a.76.76,0,0,1,.15,1,.78.78,0,0,1-1.06-.1.68.68,0,0,1,.8-1.1.52.52,0,0,1,.11.1Z" style="fill: rgb(255, 255, 255); transform-origin: 312.862px 203.656px;" id="el9teylqcz5be" class="animable"></path><path d="M386.36,248.35a.68.68,0,0,1-1,.91.69.69,0,0,1-.05-.85A.77.77,0,0,1,386.36,248.35Z" style="fill: rgb(255, 255, 255); transform-origin: 385.839px 248.801px;" id="el1f3ulugr6tt" class="animable"></path><path d="M309.49,245.26a.67.67,0,1,1-1.16.6h0a.67.67,0,0,1,.05-1,.69.69,0,0,1,.95.05.82.82,0,0,1,.14.26Z" style="fill: rgb(255, 255, 255); transform-origin: 308.889px 245.529px;" id="el41bthue3zh7" class="animable"></path><path d="M325.07,267a.68.68,0,0,1-.06,1,.69.69,0,0,1-.95-.06.7.7,0,0,1-.13-.24.77.77,0,0,1,.16-1A.75.75,0,0,1,325.07,267Z" style="fill: rgb(255, 255, 255); transform-origin: 324.537px 267.393px;" id="elnfir4wgxd0i" class="animable"></path><path d="M292.9,217a.74.74,0,0,1-.16,1,.76.76,0,0,1-1-.4h0a.67.67,0,0,1,.05-.95.69.69,0,0,1,.95,0,.82.82,0,0,1,.14.26Z" style="fill: rgb(255, 255, 255); transform-origin: 292.297px 217.261px;" id="el4r4guwzd62" class="animable"></path><path d="M345,290.52a.67.67,0,0,1-.31.89.67.67,0,0,1-.69-1.14A.77.77,0,0,1,345,290.52Z" style="fill: rgb(255, 255, 255); transform-origin: 344.4px 290.827px;" id="elq1u7iiweg1h" class="animable"></path><path d="M282.44,195.24a.77.77,0,0,1,0,1.06.86.86,0,1,1-1.35-1.06.86.86,0,0,1,1.2-.15A1.06,1.06,0,0,1,282.44,195.24Z" style="fill: rgb(255, 255, 255); transform-origin: 281.761px 195.793px;" id="elmi9v1lsbu5m" class="animable"></path><path d="M276.91,136.92a.67.67,0,0,1,0,1,.66.66,0,0,1-1.09-.25.77.77,0,0,1,.11-1A.75.75,0,0,1,276.91,136.92Z" style="fill: rgb(255, 255, 255); transform-origin: 276.409px 137.347px;" id="elvuueddsgaki" class="animable"></path><path d="M300.65,148.14a.77.77,0,0,1-.11,1.05.84.84,0,0,1-1.2,0,.85.85,0,0,1,0-1.2.86.86,0,0,1,1.21,0A1,1,0,0,1,300.65,148.14Z" style="fill: rgb(255, 255, 255); transform-origin: 299.95px 148.592px;" id="elkjxxk39rc1" class="animable"></path><path d="M296.81,163.92a.67.67,0,0,1-.93,1,.56.56,0,0,1-.17-.26.74.74,0,0,1,.11-1A.77.77,0,0,1,296.81,163.92Z" style="fill: rgb(255, 255, 255); transform-origin: 296.295px 164.339px;" id="elajdisfed32" class="animable"></path><path d="M253.27,154.07a.67.67,0,1,1-.83-.65A.77.77,0,0,1,253.27,154.07Z" style="fill: rgb(255, 255, 255); transform-origin: 252.6px 154.079px;" id="elcaqe2ft9qe9" class="animable"></path><path d="M253.11,175.22a.76.76,0,0,1-.39,1h0a.85.85,0,0,1-.4-1.61A.75.75,0,0,1,253.11,175.22Z" style="fill: rgb(255, 255, 255); transform-origin: 252.512px 175.414px;" id="eleanfdg26ov" class="animable"></path><path d="M239.17,178.19a.68.68,0,1,1-.84-.65A.76.76,0,0,1,239.17,178.19Z" style="fill: rgb(255, 255, 255); transform-origin: 238.49px 178.208px;" id="elfac1ww98bam" class="animable"></path><rect x="331.39" y="310.1" width="57.11" height="72.26" rx="7.44" style="fill: rgb(197, 63, 63); transform-origin: 359.945px 346.23px;" id="ell3in4si9o5l" class="animable"></rect><g id="el8d7tg611mm7"><rect x="331.39" y="310.1" width="57.11" height="72.26" rx="7.44" style="opacity: 0.2; isolation: isolate; transform-origin: 359.945px 346.23px;" class="animable"></rect></g><rect x="315.21" y="310.1" width="57.11" height="72.26" rx="7.44" style="fill: rgb(197, 63, 63); transform-origin: 343.765px 346.23px;" id="elq537fkssiuj" class="animable"></rect><g id="el0y9olfkvpi2l"><path d="M315.21,375.42a.5.5,0,0,1-.5-.5V317.55a8,8,0,0,1,7.94-8h11.78a.5.5,0,0,1,0,1H322.65a7,7,0,0,0-6.94,7v57.37A.5.5,0,0,1,315.21,375.42Z" style="fill: rgb(255, 255, 255); opacity: 0.3; isolation: isolate; transform-origin: 324.82px 342.485px;" class="animable"></path></g></g><defs>     <filter id="active" height="200%">         <feMorphology in="SourceAlpha" result="DILATED" operator="dilate" radius="2"></feMorphology>                <feFlood flood-color="#32DFEC" flood-opacity="1" result="PINK"></feFlood>        <feComposite in="PINK" in2="DILATED" operator="in" result="OUTLINE"></feComposite>        <feMerge>            <feMergeNode in="OUTLINE"></feMergeNode>            <feMergeNode in="SourceGraphic"></feMergeNode>        </feMerge>    </filter>    <filter id="hover" height="200%">        <feMorphology in="SourceAlpha" result="DILATED" operator="dilate" radius="2"></feMorphology>                <feFlood flood-color="#ff0000" flood-opacity="0.5" result="PINK"></feFlood>        <feComposite in="PINK" in2="DILATED" operator="in" result="OUTLINE"></feComposite>        <feMerge>            <feMergeNode in="OUTLINE"></feMergeNode>            <feMergeNode in="SourceGraphic"></feMergeNode>        </feMerge>            <feColorMatrix type="matrix" values="0   0   0   0   0                0   1   0   0   0                0   0   0   0   0                0   0   0   1   0 "></feColorMatrix>    </filter></defs></svg>